<svg xmlns="http://www.w3.org/2000/svg" viewBox="0 0 1400 742" width="1400" height="742"><rect x="0" y="0" width="1400" height="742" fill="#fafafa"/><text x="700.0" y="46" text-anchor="middle" font-family="Outfit,sans-serif" font-size="22" font-weight="800" fill="#2b2b2b">Perki app — low-fi wireframes</text><text x="190.0" y="60" text-anchor="middle" font-family="Outfit,sans-serif" font-size="13" font-weight="700" fill="#7a6a2f" letter-spacing="2">HOME</text><rect x="40" y="90" width="300" height="612" rx="26" fill="#fff" stroke="#2b2b2b" stroke-width="3"/><rect x="54" y="106" width="272" height="34" rx="7" fill="#f6f6f6" stroke="#bbb"/><circle cx="72" cy="123" r="9" fill="#ededed" stroke="#bbb"/><text x="87" y="127" font-family="Outfit,sans-serif" font-size="12" font-weight="700" fill="#444">Perki</text><rect x="256" y="114" width="62" height="18" rx="9" fill="#ededed" stroke="#bbb"/><rect x="54" y="152" width="272" height="36" rx="7" fill="#ededed" stroke="#bbb"/><text x="64" y="169.0" font-family="Work Sans,sans-serif" font-size="11" fill="#444" font-weight="600">Title: Your perks</text><text x="64" y="181.0" font-family="Work Sans,sans-serif" font-size="9.5" fill="#8a8a8a">Used 3 / 12</text><rect x="54" y="196" width="272" height="40" rx="7" fill="#f1ead7" stroke="#bbb" stroke-dasharray="4 3"/><text x="64" y="215.0" font-family="Work Sans,sans-serif" font-size="11" fill="#444" font-weight="600">Value banner</text><text x="64" y="227.0" font-family="Work Sans,sans-serif" font-size="9.5" fill="#8a8a8a">£186 still on the table · 3 reset this week</text><rect x="54" y="244" width="272" height="28" rx="7" fill="#ededed" stroke="#bbb"/><text x="64" y="262.0" font-family="Work Sans,sans-serif" font-size="9.5" fill="#444" font-weight="600">Segmented: Perks / Features / Comps / Discounts</text><rect x="54" y="280" width="272" height="24" rx="7" fill="#ededed" stroke="#bbb"/><text x="64" y="296.0" font-family="Work Sans,sans-serif" font-size="9.5" fill="#444" font-weight="600">Toggle: By reset · By category</text><text x="54" y="322" font-family="Work Sans" font-size="10" fill="#8a8a8a" font-weight="700">5-up perk grid (tap → drawer)</text><rect x="54.0" y="330.0" width="62.75" height="62.75" rx="6" fill="#ededed" stroke="#bbb"/><rect x="123.75" y="330.0" width="62.75" height="62.75" rx="6" fill="#ededed" stroke="#bbb"/><rect x="193.5" y="330.0" width="62.75" height="62.75" rx="6" fill="#ededed" stroke="#bbb"/><rect x="263.25" y="330.0" width="62.75" height="62.75" rx="6" fill="#ededed" stroke="#bbb"/><rect x="54.0" y="399.75" width="62.75" height="62.75" rx="6" fill="#ededed" stroke="#bbb"/><rect x="123.75" y="399.75" width="62.75" height="62.75" rx="6" fill="#ededed" stroke="#bbb"/><rect x="193.5" y="399.75" width="62.75" height="62.75" rx="6" fill="#ededed" stroke="#bbb"/><rect x="263.25" y="399.75" width="62.75" height="62.75" rx="6" fill="#ededed" stroke="#bbb"/><rect x="48" y="652" width="284" height="42" rx="12" fill="#f6f6f6" stroke="#bbb"/><rect x="53.0" y="657" width="61.0" height="32" rx="9" fill="#cfc6ad"/><circle cx="83.5" cy="667" r="6" fill="none" stroke="#7a6a2f" stroke-width="1.5"/><text x="83.5" y="685" text-anchor="middle" font-family="Work Sans" font-size="8.5" fill="#7a6a2f" font-weight="700">Home</text><circle cx="154.5" cy="667" r="6" fill="none" stroke="#8a8a8a" stroke-width="1.5"/><text x="154.5" y="685" text-anchor="middle" font-family="Work Sans" font-size="8.5" fill="#8a8a8a" font-weight="500">Market</text><circle cx="225.5" cy="667" r="6" fill="none" stroke="#8a8a8a" stroke-width="1.5"/><text x="225.5" y="685" text-anchor="middle" font-family="Work Sans" font-size="8.5" fill="#8a8a8a" font-weight="500">Where</text><circle cx="296.5" cy="667" r="6" fill="none" stroke="#8a8a8a" stroke-width="1.5"/><text x="296.5" y="685" text-anchor="middle" font-family="Work Sans" font-size="8.5" fill="#8a8a8a" font-weight="500">Profile</text><text x="530.0" y="60" text-anchor="middle" font-family="Outfit,sans-serif" font-size="13" font-weight="700" fill="#7a6a2f" letter-spacing="2">MARKETPLACE</text><rect x="380" y="90" width="300" height="612" rx="26" fill="#fff" stroke="#2b2b2b" stroke-width="3"/><rect x="394" y="106" width="272" height="34" rx="7" fill="#f6f6f6" stroke="#bbb"/><circle cx="412" cy="123" r="9" fill="#ededed" stroke="#bbb"/><text x="427" y="127" font-family="Outfit,sans-serif" font-size="12" font-weight="700" fill="#444">Perki</text><rect x="596" y="114" width="62" height="18" rx="9" fill="#ededed" stroke="#bbb"/><rect x="394" y="152" width="272" height="36" rx="7" fill="#ededed" stroke="#bbb"/><text x="404" y="169.0" font-family="Work Sans,sans-serif" font-size="11" fill="#444" font-weight="600">Title: Marketplace</text><text x="404" y="181.0" font-family="Work Sans,sans-serif" font-size="9.5" fill="#8a8a8a">+ Request membership</text><rect x="394" y="196" width="272" height="30" rx="7" fill="#f6f6f6" stroke="#bbb"/><text x="404" y="215.0" font-family="Work Sans,sans-serif" font-size="11" fill="#444" font-weight="600">Search bar</text><rect x="394" y="234" width="272" height="36" rx="7" fill="#ededed" stroke="#bbb"/><text x="404" y="251.0" font-family="Work Sans,sans-serif" font-size="11" fill="#444" font-weight="600">Provider: Monzo</text><text x="404" y="263.0" font-family="Work Sans,sans-serif" font-size="9.5" fill="#8a8a8a">18 perks · from Free</text><rect x="394" y="278" width="272" height="30" rx="7" fill="#f6f6f6" stroke="#bbb"/><text x="404" y="297.0" font-family="Work Sans,sans-serif" font-size="11" fill="#444" font-weight="600">  Perk row · Active tag</text><rect x="394" y="316" width="272" height="30" rx="7" fill="#f6f6f6" stroke="#bbb"/><text x="404" y="335.0" font-family="Work Sans,sans-serif" font-size="11" fill="#444" font-weight="600">  Perk row · [Add tier]</text><rect x="394" y="354" width="272" height="34" rx="7" fill="#ededed" stroke="#bbb"/><text x="404" y="370.0" font-family="Work Sans,sans-serif" font-size="11" fill="#444" font-weight="600">Provider: Revolut</text><text x="404" y="382.0" font-family="Work Sans,sans-serif" font-size="9.5" fill="#8a8a8a">from Free</text><rect x="394" y="396" width="272" height="34" rx="7" fill="#ededed" stroke="#bbb"/><text x="404" y="412.0" font-family="Work Sans,sans-serif" font-size="11" fill="#444" font-weight="600">Provider: OVO Energy</text><text x="404" y="424.0" font-family="Work Sans,sans-serif" font-size="9.5" fill="#8a8a8a">from Free</text><rect x="394" y="438" width="272" height="34" rx="7" fill="#ededed" stroke="#bbb"/><text x="404" y="454.0" font-family="Work Sans,sans-serif" font-size="11" fill="#444" font-weight="600">Provider: Sky TV</text><text x="404" y="466.0" font-family="Work Sans,sans-serif" font-size="9.5" fill="#8a8a8a">from £26/mo</text><rect x="388" y="652" width="284" height="42" rx="12" fill="#f6f6f6" stroke="#bbb"/><circle cx="423.5" cy="667" r="6" fill="none" stroke="#8a8a8a" stroke-width="1.5"/><text x="423.5" y="685" text-anchor="middle" font-family="Work Sans" font-size="8.5" fill="#8a8a8a" font-weight="500">Home</text><rect x="464.0" y="657" width="61.0" height="32" rx="9" fill="#cfc6ad"/><circle cx="494.5" cy="667" r="6" fill="none" stroke="#7a6a2f" stroke-width="1.5"/><text x="494.5" y="685" text-anchor="middle" font-family="Work Sans" font-size="8.5" fill="#7a6a2f" font-weight="700">Market</text><circle cx="565.5" cy="667" r="6" fill="none" stroke="#8a8a8a" stroke-width="1.5"/><text x="565.5" y="685" text-anchor="middle" font-family="Work Sans" font-size="8.5" fill="#8a8a8a" font-weight="500">Where</text><circle cx="636.5" cy="667" r="6" fill="none" stroke="#8a8a8a" stroke-width="1.5"/><text x="636.5" y="685" text-anchor="middle" font-family="Work Sans" font-size="8.5" fill="#8a8a8a" font-weight="500">Profile</text><text x="870.0" y="60" text-anchor="middle" font-family="Outfit,sans-serif" font-size="13" font-weight="700" fill="#7a6a2f" letter-spacing="2">WHERE</text><rect x="720" y="90" width="300" height="612" rx="26" fill="#fff" stroke="#2b2b2b" stroke-width="3"/><rect x="734" y="106" width="272" height="34" rx="7" fill="#f6f6f6" stroke="#bbb"/><circle cx="752" cy="123" r="9" fill="#ededed" stroke="#bbb"/><text x="767" y="127" font-family="Outfit,sans-serif" font-size="12" font-weight="700" fill="#444">Perki</text><rect x="936" y="114" width="62" height="18" rx="9" fill="#ededed" stroke="#bbb"/><rect x="734" y="152" width="272" height="36" rx="7" fill="#ededed" stroke="#bbb"/><text x="744" y="169.0" font-family="Work Sans,sans-serif" font-size="11" fill="#444" font-weight="600">Title: Where to use</text><text x="744" y="181.0" font-family="Work Sans,sans-serif" font-size="9.5" fill="#8a8a8a">Find perks by category</text><rect x="734" y="196" width="272" height="40" rx="7" fill="#ededed" stroke="#bbb"/><text x="744" y="220.0" font-family="Work Sans,sans-serif" font-size="11" fill="#444" font-weight="600">Travel · 9 perks · logos</text><rect x="734" y="244" width="272" height="40" rx="7" fill="#ededed" stroke="#bbb"/><text x="744" y="268.0" font-family="Work Sans,sans-serif" font-size="11" fill="#444" font-weight="600">Banking · 14 perks · logos</text><rect x="734" y="292" width="272" height="40" rx="7" fill="#ededed" stroke="#bbb"/><text x="744" y="316.0" font-family="Work Sans,sans-serif" font-size="11" fill="#444" font-weight="600">Streaming · 7 perks · logos</text><rect x="734" y="340" width="272" height="40" rx="7" fill="#ededed" stroke="#bbb"/><text x="744" y="364.0" font-family="Work Sans,sans-serif" font-size="11" fill="#444" font-weight="600">Insurance · 5 perks · logos</text><rect x="734" y="388" width="272" height="40" rx="7" fill="#ededed" stroke="#bbb"/><text x="744" y="412.0" font-family="Work Sans,sans-serif" font-size="11" fill="#444" font-weight="600">Fitness · 4 perks · logos</text><rect x="728" y="652" width="284" height="42" rx="12" fill="#f6f6f6" stroke="#bbb"/><circle cx="763.5" cy="667" r="6" fill="none" stroke="#8a8a8a" stroke-width="1.5"/><text x="763.5" y="685" text-anchor="middle" font-family="Work Sans" font-size="8.5" fill="#8a8a8a" font-weight="500">Home</text><circle cx="834.5" cy="667" r="6" fill="none" stroke="#8a8a8a" stroke-width="1.5"/><text x="834.5" y="685" text-anchor="middle" font-family="Work Sans" font-size="8.5" fill="#8a8a8a" font-weight="500">Market</text><rect x="875.0" y="657" width="61.0" height="32" rx="9" fill="#cfc6ad"/><circle cx="905.5" cy="667" r="6" fill="none" stroke="#7a6a2f" stroke-width="1.5"/><text x="905.5" y="685" text-anchor="middle" font-family="Work Sans" font-size="8.5" fill="#7a6a2f" font-weight="700">Where</text><circle cx="976.5" cy="667" r="6" fill="none" stroke="#8a8a8a" stroke-width="1.5"/><text x="976.5" y="685" text-anchor="middle" font-family="Work Sans" font-size="8.5" fill="#8a8a8a" font-weight="500">Profile</text><text x="1210.0" y="60" text-anchor="middle" font-family="Outfit,sans-serif" font-size="13" font-weight="700" fill="#7a6a2f" letter-spacing="2">PROFILE</text><rect x="1060" y="90" width="300" height="612" rx="26" fill="#fff" stroke="#2b2b2b" stroke-width="3"/><rect x="1074" y="106" width="272" height="34" rx="7" fill="#f6f6f6" stroke="#bbb"/><circle cx="1092" cy="123" r="9" fill="#ededed" stroke="#bbb"/><text x="1107" y="127" font-family="Outfit,sans-serif" font-size="12" font-weight="700" fill="#444">Perki</text><rect x="1276" y="114" width="62" height="18" rx="9" fill="#ededed" stroke="#bbb"/><rect x="1074" y="152" width="272" height="56" rx="7" fill="#ededed" stroke="#bbb"/><text x="1084" y="184.0" font-family="Work Sans,sans-serif" font-size="11" fill="#444" font-weight="600">Identity card: avatar · name · log out</text><rect x="1074" y="216" width="272" height="40" rx="7" fill="#ededed" stroke="#bbb"/><text x="1084" y="240.0" font-family="Work Sans,sans-serif" font-size="11" fill="#444" font-weight="600">Stats: Available · Used · Won't use</text><rect x="1074" y="264" width="272" height="34" rx="7" fill="#ededed" stroke="#bbb"/><text x="1084" y="285.0" font-family="Work Sans,sans-serif" font-size="11" fill="#444" font-weight="600">Monthly cost  £31.00</text><rect x="1074" y="306" width="272" height="36" rx="7" fill="#f1ead7" stroke="#bbb" stroke-dasharray="4 3"/><text x="1084" y="323.0" font-family="Work Sans,sans-serif" font-size="11" fill="#444" font-weight="600">Active perks (9)</text><text x="1084" y="335.0" font-family="Work Sans,sans-serif" font-size="9.5" fill="#8a8a8a">COLLAPSED by default</text><rect x="1074" y="350" width="272" height="36" rx="7" fill="#f1ead7" stroke="#bbb" stroke-dasharray="4 3"/><text x="1084" y="367.0" font-family="Work Sans,sans-serif" font-size="11" fill="#444" font-weight="600">Inactive perks (5)</text><text x="1084" y="379.0" font-family="Work Sans,sans-serif" font-size="9.5" fill="#8a8a8a">COLLAPSED by default</text><rect x="1074" y="394" width="272" height="34" rx="7" fill="#ededed" stroke="#bbb"/><text x="1084" y="415.0" font-family="Work Sans,sans-serif" font-size="11" fill="#444" font-weight="600">Your memberships → Monzo…</text><rect x="1068" y="652" width="284" height="42" rx="12" fill="#f6f6f6" stroke="#bbb"/><circle cx="1103.5" cy="667" r="6" fill="none" stroke="#8a8a8a" stroke-width="1.5"/><text x="1103.5" y="685" text-anchor="middle" font-family="Work Sans" font-size="8.5" fill="#8a8a8a" font-weight="500">Home</text><circle cx="1174.5" cy="667" r="6" fill="none" stroke="#8a8a8a" stroke-width="1.5"/><text x="1174.5" y="685" text-anchor="middle" font-family="Work Sans" font-size="8.5" fill="#8a8a8a" font-weight="500">Market</text><circle cx="1245.5" cy="667" r="6" fill="none" stroke="#8a8a8a" stroke-width="1.5"/><text x="1245.5" y="685" text-anchor="middle" font-family="Work Sans" font-size="8.5" fill="#8a8a8a" font-weight="500">Where</text><rect x="1286.0" y="657" width="61.0" height="32" rx="9" fill="#cfc6ad"/><circle cx="1316.5" cy="667" r="6" fill="none" stroke="#7a6a2f" stroke-width="1.5"/><text x="1316.5" y="685" text-anchor="middle" font-family="Work Sans" font-size="8.5" fill="#7a6a2f" font-weight="700">Profile</text></svg>